<svg width="128" height="128" viewBox="0 0 128 128" fill="none" xmlns="http://www.w3.org/2000/svg" role="img" aria-labelledby="title desc">
  <title id="title">Metrion icon</title>
  <desc id="desc">Minimal app icon for Metrion with document, metrics and Peruvian sol marker.</desc>
  <rect width="128" height="128" rx="28" fill="#047857"/>
  <rect width="128" height="128" rx="28" fill="url(#iconGlow)" fill-opacity="0.24"/>

  <path d="M40 28H76L100 52V92C100 100.837 92.837 108 84 108H40C31.163 108 24 100.837 24 92V44C24 35.163 31.163 28 40 28Z" fill="white" fill-opacity="0.92"/>
  <path d="M76 28V48C76 50.209 77.791 52 80 52H100" stroke="#047857" stroke-width="6" stroke-linecap="round" stroke-linejoin="round"/>

  <rect x="38" y="70" width="10" height="16" rx="3" fill="#047857"/>
  <rect x="56" y="60" width="10" height="26" rx="3" fill="#047857"/>
  <rect x="74" y="48" width="10" height="38" rx="3" fill="#047857"/>

  <circle cx="88" cy="88" r="22" fill="#D1FAE5" stroke="#047857" stroke-width="6"/>
  <text x="88" y="96" text-anchor="middle" font-family="Inter, ui-sans-serif, system-ui, -apple-system, BlinkMacSystemFont, 'Segoe UI', sans-serif" font-size="22" font-weight="800" fill="#047857">S/</text>

  <defs>
    <linearGradient id="iconGlow" x1="0" y1="0" x2="128" y2="128" gradientUnits="userSpaceOnUse">
      <stop stop-color="#D1FAE5"/>
      <stop offset="1" stop-color="#047857" stop-opacity="0"/>
    </linearGradient>
  </defs>
</svg>
